<svg width="20" height="23" viewBox="0 0 20 23" fill="none" xmlns="http://www.w3.org/2000/svg">
<path d="M8.98438 22.9611C8.98438 21.7856 8.75199 20.6217 8.30048 19.5357C7.84897 18.4497 7.18719 17.463 6.35291 16.6318C5.51864 15.8006 4.52821 15.1413 3.43817 14.6915C2.34814 14.2417 1.17984 14.0102 0 14.0102L3.9272e-07 22.9611H8.98438Z" fill="#A9B7FB"/>
<path d="M20 23C20 21.5946 19.7221 20.2029 19.1823 18.9044C18.6425 17.606 17.8512 16.4262 16.8537 15.4324C15.8562 14.4386 14.672 13.6503 13.3687 13.1125C12.0654 12.5746 10.6685 12.2978 9.25781 12.2978L9.25781 19.3449C9.7396 19.3449 10.2167 19.4395 10.6618 19.6232C11.1069 19.8069 11.5113 20.0761 11.852 20.4155C12.1927 20.7549 12.4629 21.1578 12.6473 21.6013C12.8316 22.0447 12.9265 22.52 12.9265 23H20Z" fill="#A9B7FB"/>
<path d="M20 0C20 6.291 15.5925 11.4002 10.1292 11.4796L9.87076 11.4815C4.40747 11.5609 3.9272e-07 16.6701 3.9272e-07 22.9611L0 0H20ZM10 2.7242C8.4467 2.7242 7.1875 3.97871 7.1875 5.52623C7.1875 7.07375 8.4467 8.32826 10 8.32826C11.5533 8.32826 12.8125 7.07375 12.8125 5.52623C12.8125 3.97871 11.5533 2.7242 10 2.7242Z" fill="#F2EEE9"/>
</svg>
