<svg width="19" height="30" viewBox="0 0 19 30" fill="none" xmlns="http://www.w3.org/2000/svg">
<path d="M7.8062 0C11.5002 0 15.1941 0 19 0C19 5.94047 17.9012 10.1757 13.7391 14.3856C9.80236 18.0949 5.2921 18.7864 0 18.7864C0 15.134 0 11.4816 0 7.71845C1.0693 7.67039 2.1386 7.62233 3.24031 7.57282C4.80843 7.17368 6.0328 6.41406 6.88106 5.02086C7.75736 3.34606 7.70546 1.99223 7.8062 0Z" fill="#E6DFF1"/>
<path d="M7.8062 18.932C11.1416 18.932 13.6016 20.0761 16.0082 22.3271C18.0526 24.4055 19 27.1518 19 30C15.306 30 11.6121 30 7.8062 30C7.8062 26.3476 7.8062 22.6951 7.8062 18.932Z" fill="#E6DFF1"/>
</svg>
