<svg width="19" height="30" viewBox="0 0 19 30" fill="none" xmlns="http://www.w3.org/2000/svg">
<path d="M19 0C19 2.49497 18.5084 4.96544 17.5537 7.27051C16.5989 9.57569 15.1989 11.6703 13.4346 13.4346C11.6703 15.1989 9.57569 16.5989 7.27051 17.5537C4.96544 18.5084 2.49497 19 0 19V6.91504C0.325311 6.96963 0.659174 7 1 7C4.31371 7 7 4.31371 7 1C7 0.659174 6.96963 0.325311 6.91504 0H19Z" fill="#F2EEE9"/>
<path d="M19 30C19 28.5555 18.7155 27.1251 18.1627 25.7905C17.6099 24.4559 16.7996 23.2433 15.7782 22.2218C14.7567 21.2004 13.5441 20.3901 12.2095 19.8373C10.8749 19.2845 9.44454 19 8 19L8 30H19Z" fill="#E6DFF1"/>
</svg>
