<svg width="100" height="60" viewBox="0 0 100 60" fill="none" xmlns="http://www.w3.org/2000/svg">
<path d="M39 0C39 6.62742 44.3726 12 51 12C57.6274 12 63 6.62742 63 0L86 0C87.1046 9.01957e-07 88 0.895431 88 2V18C94.6274 18 100 23.3726 100 30C100 36.6274 94.6274 42 88 42V58C88 59.1046 87.1046 60 86 60H63C63 53.3726 57.6274 48 51 48C44.3726 48 39 53.3726 39 60H14C12.8954 60 12 59.1046 12 58V42C5.37258 42 0 36.6274 0 30C0 23.3726 5.37258 18 12 18V2C12 0.895431 12.8954 5.63748e-08 14 0L39 0Z" fill="white"/>
</svg>
